<?xml version="1.0" standalone="no"?>
<!DOCTYPE svg PUBLIC "-//W3C//DTD SVG 1.1//EN" "http://www.w3.org/Graphics/SVG/1.1/DTD/svg11.dtd" >
<svg xmlns="http://www.w3.org/2000/svg" xmlns:svg="http://www.w3.org/2000/svg" xmlns:xlink="http://www.w3.org/1999/xlink" viewBox="0 0 1024 1024"><path d="M91.09 235.21Q80.12 223.36 102.43 205.81Q115.45 188.08 162.3 178.65L255.68 198.13V136.31Q256.82 121.7 247.89 115.48Q241.04 99.71 226.96 104.42Q256.05 109.18 263.75 90.79Q268.38 86.41 296.01 87.94Q276.46 80.96 278.72 107.04Q317.48 100.82 315.3 130.91Q315.85 150.31 323.12 181.94Q316.61 185.83 333.8 184.29Q305.35 198.84 324.44 210.67Q354.45 182.46 388.57 209.18Q440.22 198.42 441.4 204.06Q459.86 212.28 463.2 221.71Q480.49 239.71 489.36 240.45Q467.76 247.6 466.79 249.55Q463.73 272.34 479.23 271.39Q473.33 285.82 454.25 277.8Q424.07 299.06 399.99 275Q419.71 260.16 380.57 286.37Q358.63 262.91 370.18 269.82Q339.01 287.05 307.64 293.25Q307.68 313.49 302.11 359.11L315.84 378.6H342.22Q393.71 388.52 425.29 376.89Q418.4 394.42 451.33 391.32Q471.44 409.39 443.19 431.29Q467.73 421.44 468.07 436.43Q443.69 468.43 459.85 559.35Q460.73 698.28 429.71 797.96Q407.72 869.21 365.74 913.28L372.18 919.81L331.34 912.45Q293.15 884.21 293.81 863.5Q230.91 833.15 224.77 835.4Q249.82 774.23 269.86 793.09Q276.31 792.32 277.66 761.82Q302.24 757.24 303.48 768.53Q340.36 796.93 343.8 799.52Q340.38 779.22 340.97 790.09Q338.39 793.03 354.98 782.99Q327.5 771.8 358.61 748.76Q349.12 744.94 345.48 737.95Q381.52 690.81 361.48 612.04Q382.55 514.85 386.99 494.68V449.16L262.89 475.05L254.05 541Q229.39 633.06 200.99 707.49Q194.01 783.43 190.63 793.31Q176.61 808.88 159.21 830.55Q158.8 836.14 147.74 862.78Q113.73 866.24 110.95 871.43Q117.68 839.54 128.1 846.08Q121.23 871.47 114.62 846.6L109.2 821.32L100.86 734.74Q177.48 627.37 202.84 532.85Q202.83 406.2 214.37 331.72Q237.29 335.23 234.74 319.71Q233.7 297.28 204.85 267.42Q208.38 284.33 203.24 270.69Q184.24 275.43 152.35 289.81Q157.93 260.28 144.45 278.66Q117.91 270.69 136.62 264.94Q110.24 294.47 91.98 284.85Q82.46 257.6 65.82 248.34Q73.99 250.63 64.93 239.52Q89.94 221.48 75.07 215.23ZM547.3 500.94Q541.86 501.96 585.17 485.38Q580.33 469.16 568.53 462.38Q577.49 497.32 604.08 466.84Q581.47 483.58 607.32 481.93Q591.07 456.92 576.87 441.75Q588.77 422.62 591.75 441.45Q586.35 421.59 614.26 397.55Q598.67 384.11 607 364.53Q621.73 368.61 627.4 364.13Q641.43 382.41 651.01 364.59Q676.32 381.65 664.05 394.64Q671.55 425.72 670.62 420.64Q683.41 435.3 701.45 429.81Q684.65 455.83 716.38 433.91Q710.93 450.68 720.93 429.32Q744.9 405.38 715.67 379.11Q743.62 376.8 718.86 354.8Q753 326.37 742.09 345.57Q770.51 327.59 749.2 313.36Q774.12 307.62 755.95 335.92Q800.28 332.18 778.4 320.99Q797.88 332.93 782.79 347.14Q818.33 349.15 802.57 335.16Q791.39 344.74 815.41 393.56Q799.02 393.5 780.5 387.2Q811.53 409.11 786.55 418.09Q776.17 421.78 819.3 409.1Q806.33 406.9 813.94 408.69Q839.25 400.48 868.7 411.01Q874.77 377.2 905.53 374.22Q908.26 390.51 919.82 380.59Q906.9 382.61 944.54 402.8Q942.57 397.97 957.39 410Q932.05 421.79 940.27 432.17Q946.35 436.02 925.72 548.45Q913.8 602.33 902.58 679.25Q881.39 698.97 899.88 703.99Q898.43 697.81 886.33 688.34Q857.5 705.49 833.78 672.52Q833.43 661.57 825.4 628.29Q827.99 631.25 796 611Q802.64 590.12 834.92 618.54Q844.7 590.13 844.38 597.11Q834.59 572.41 845.84 597.39Q854.31 554.81 870.35 512.36Q849.82 493.08 875.98 483.72Q873.91 480.96 860.95 478.75H864.26Q851.3 479.29 833.85 471.02L791.93 459.25L803.63 588.7Q808.13 650.97 806.39 646.37Q780.67 695.88 747.87 683.05Q746.37 681.54 780.17 695.6Q741.23 675.89 721.63 679.44Q740.98 659.82 710.44 589.3Q724.77 546.87 744.2 550.97Q731.97 518.12 721.99 509.9Q735.8 495.52 708.29 494.29Q724.65 514.8 677.73 492.05Q684.02 525.68 670.32 519.45Q686.4 560.53 678.24 609.88Q694 646.18 677.33 678.55Q680.12 775.96 689.5 812.89Q682.28 821.51 719.31 830.03Q732.89 857.2 760.03 846.75Q772.47 832.94 792.18 833.64H888.66L887.14 842.04Q868.87 786.31 884.89 809.1Q911 770.8 912.44 766.96Q924.62 796.89 935.44 787.3Q940.03 796.73 926.79 784.67Q949.7 786.51 958.89 825.99Q964.69 858.81 956.71 880.32Q946.74 909.07 935.44 915.85Q923.54 916.26 852.24 926.1Q837.4 924.23 805.56 932.49Q723.23 935.61 683.35 896.31Q646.06 915.34 622.29 859.48L596.33 820.33L595.22 683.33Q605.2 614.59 587.02 574.39Q593.04 535.68 574.31 544.1Q583.92 546.76 576.24 550.79Q583.87 570.05 565.87 581.15Q567.29 579.74 545.34 567.14Q557.09 580.35 556.69 569.02Q551.32 565 540.11 542.96Q534.92 493.11 559.96 475.81ZM500.37 335.84Q490.33 306.42 531.61 286.47Q533.72 236.96 549.44 170.09Q555.49 159.66 560.54 120.75Q556.63 107.76 578.63 105.49Q582.5 108.82 599.9 117.98Q595.5 92.88 578.47 97.77Q597.43 81.2 626.26 102.52Q630.4 101.57 622.07 126.5Q601.92 123.41 627.75 137.09Q605.75 149.2 612.39 136.34Q623.82 146.51 628.68 157.51Q626.42 197.42 601.25 198.71Q603.69 185.99 625.31 194.12Q599.44 189.03 621.59 188.53Q661.19 183.42 766.99 205.38Q878.94 213.26 875.99 205.09Q929.87 207.68 951.24 227.71Q931.21 219.3 949.39 243.27Q959.47 234.87 943.83 245.29Q936.2 264.08 925.95 289.33Q921.99 265.19 901.72 301.85Q858.15 290.18 831.27 283.32Q790.41 275.58 737.22 277.96L615.74 285.07L587.58 336.98Q567.66 357.92 560.15 398.02Q547 396.05 529.24 410.35Q547.32 417.05 504.45 436.86Q512.74 415 503.47 427.38Q490.68 423.93 494.73 411.77Q465.48 383.46 489.37 384.26Q463.61 366.56 477.75 340.04Z" fill="black"></path></svg>