<?xml version="1.0" standalone="no"?>
<!DOCTYPE svg PUBLIC "-//W3C//DTD SVG 1.1//EN" "http://www.w3.org/Graphics/SVG/1.1/DTD/svg11.dtd" >
<svg xmlns="http://www.w3.org/2000/svg" xmlns:svg="http://www.w3.org/2000/svg" xmlns:xlink="http://www.w3.org/1999/xlink" viewBox="0 0 1024 1024"><path d="M72.0 233.0Q73.0 218.0 98.5 210.0Q124.0 202.0 180.0 198.0L237.0 195.0V152.0Q237.0 132.0 239.0 117.5Q241.0 103.0 244.0 99.0Q252.0 93.0 266.0 93.0Q268.0 93.0 278.0 93.5Q288.0 94.0 298.0 101.0Q304.0 108.0 308.5 125.5Q313.0 143.0 316.0 182.0Q316.0 183.0 316.0 184.0Q316.0 195.0 328.0 197.5Q340.0 200.0 392.0 200.0Q437.0 202.0 454.0 204.5Q471.0 207.0 475.0 213.0Q483.0 224.0 483.0 237.0Q483.0 239.0 482.5 247.5Q482.0 256.0 469.0 267.0Q464.0 276.0 451.0 278.0Q438.0 280.0 419.0 280.0Q404.0 280.0 383.0 279.0Q377.0 279.0 371.0 279.0Q321.0 279.0 310.5 287.5Q300.0 296.0 300.0 350.0L298.0 391.0H360.0Q387.0 391.0 408.5 392.0Q430.0 393.0 435.0 395.0Q457.0 396.0 459.0 416.0Q461.0 436.0 461.0 449.0Q461.0 482.0 455.0 544.0Q442.0 681.0 419.5 780.0Q397.0 879.0 374.0 909.0L356.0 931.0L333.0 917.0Q304.0 897.0 275.0 864.5Q246.0 832.0 243.0 816.0Q246.0 785.0 262.0 779.0Q278.0 773.0 286.0 773.0Q303.0 773.0 320.0 787.0Q327.0 796.0 331.0 796.0Q333.0 796.0 335.5 794.0Q338.0 792.0 342.0 769.0Q343.0 764.0 347.5 750.5Q352.0 737.0 356.0 720.0Q365.0 690.0 375.0 606.0Q385.0 522.0 387.0 479.0V461.0L280.0 465.0L259.0 549.0Q239.0 629.0 213.0 705.5Q187.0 782.0 171.0 812.0Q165.0 825.0 155.0 835.5Q145.0 846.0 138.0 850.0Q128.0 856.0 123.0 856.0Q122.0 856.0 118.5 855.5Q115.0 855.0 106.0 846.0L91.0 832.0L120.0 749.0Q162.0 627.0 189.0 517.0Q216.0 407.0 223.0 344.0Q225.0 323.0 225.0 309.0Q225.0 287.0 220.0 281.5Q215.0 276.0 195.0 276.0Q182.0 276.0 162.0 278.0Q150.0 279.0 138.0 279.0Q132.0 279.0 120.0 278.5Q108.0 278.0 99.0 276.0Q82.0 272.0 76.5 262.0Q71.0 252.0 71.0 243.0Q71.0 238.0 72.0 233.0ZM556.0 488.0Q559.0 486.0 566.5 483.5Q574.0 481.0 581.0 479.0Q592.0 479.0 594.0 474.5Q596.0 470.0 596.0 462.0Q596.0 456.0 595.0 447.0Q594.0 435.0 594.0 425.0Q594.0 408.0 598.5 395.0Q603.0 382.0 617.0 377.0Q625.0 374.0 631.0 374.0Q641.0 374.0 651.5 382.5Q662.0 391.0 667.0 413.0Q671.0 432.0 678.0 436.0Q685.0 440.0 692.0 440.0Q699.0 440.0 709.0 438.0Q720.0 434.0 724.5 425.0Q729.0 416.0 730.0 389.0Q734.0 371.0 737.5 356.0Q741.0 341.0 747.0 333.0Q756.0 321.0 763.5 320.5Q771.0 320.0 773.0 320.0Q785.0 320.0 793.0 328.0Q799.0 333.0 799.5 339.5Q800.0 346.0 800.0 349.0Q800.0 359.0 797.0 375.0Q794.0 392.0 794.0 400.0Q794.0 404.0 795.0 406.5Q796.0 409.0 800.0 409.0Q803.0 409.0 808.0 407.0Q851.0 396.0 868.0 393.0Q885.0 390.0 896.0 390.0Q903.0 390.0 909.0 391.0Q921.0 391.0 930.0 393.0Q939.0 395.0 941.0 400.0Q943.0 407.0 943.0 421.0Q943.0 453.0 933.0 537.0Q923.0 621.0 909.0 665.0Q901.0 683.0 892.5 684.5Q884.0 686.0 881.0 686.0Q867.0 686.0 849.0 675.0Q815.0 654.0 813.0 642.0Q811.0 630.0 811.0 628.0Q811.0 610.0 835.0 602.0Q842.0 600.0 847.5 595.5Q853.0 591.0 856.0 585.0Q860.0 567.0 864.0 529.0Q868.0 491.0 868.0 476.0Q868.0 470.0 867.0 467.0H857.0Q846.0 468.0 831.0 472.0L797.0 479.0L795.0 569.0Q795.0 638.0 788.0 660.5Q781.0 683.0 763.0 683.0Q762.0 683.0 761.0 683.0Q741.0 683.0 735.0 664.0Q729.0 645.0 729.0 589.0Q729.0 558.0 728.0 535.0Q727.0 512.0 723.0 508.0Q719.0 502.0 712.0 502.0Q707.0 502.0 695.5 507.5Q684.0 513.0 676.0 531.0Q674.0 549.0 674.0 612.0Q674.0 633.0 674.5 697.5Q675.0 762.0 682.0 810.0Q684.0 836.0 703.5 843.0Q723.0 850.0 768.0 850.0Q779.0 850.0 792.0 850.0H871.0L874.0 825.0Q878.0 803.0 888.0 791.5Q898.0 780.0 914.0 780.0Q916.0 780.0 918.0 780.0Q931.0 780.0 938.0 792.5Q945.0 805.0 948.0 841.0Q953.0 867.0 953.0 884.0Q953.0 904.0 942.5 913.0Q932.0 922.0 856.0 924.0Q826.0 925.0 800.0 925.0Q737.0 925.0 697.0 914.5Q657.0 904.0 630.0 864.0L610.0 836.0L606.0 699.0Q604.0 603.0 600.0 577.5Q596.0 552.0 592.0 552.0Q590.0 552.0 588.0 557.0Q583.0 564.0 575.5 565.5Q568.0 567.0 565.0 567.0Q559.0 567.0 556.0 564.0Q549.0 553.0 549.0 525.0Q549.0 497.0 556.0 488.0ZM493.0 351.0Q507.0 321.0 519.0 283.0Q531.0 245.0 541.0 188.0Q547.0 157.0 552.5 134.5Q558.0 112.0 561.0 108.0Q569.0 99.0 581.0 99.0Q583.0 99.0 591.0 100.0Q599.0 101.0 610.0 112.0Q615.0 119.0 616.5 126.0Q618.0 133.0 618.0 138.0Q618.0 145.0 617.0 152.0Q617.0 164.0 614.5 175.0Q612.0 186.0 610.0 189.0Q609.0 190.0 609.0 192.0Q609.0 197.0 634.5 199.5Q660.0 202.0 763.0 204.0Q860.0 207.0 893.5 210.0Q927.0 213.0 932.0 220.0Q943.0 231.0 943.0 246.0Q943.0 248.0 942.0 257.5Q941.0 267.0 927.0 278.0Q919.0 285.0 893.5 286.0Q868.0 287.0 825.0 287.0Q796.0 287.0 757.0 287.0L604.0 283.0L590.0 323.0Q576.0 364.0 565.0 383.0Q554.0 402.0 540.0 411.0Q529.0 422.0 522.5 422.0Q516.0 422.0 505.0 416.0Q486.0 405.0 484.0 396.5Q482.0 388.0 482.0 385.0Q482.0 372.0 493.0 351.0Z" fill="black"></path></svg>